<svg width="20" height="20" viewBox="0 0 20 20" fill="none" xmlns="http://www.w3.org/2000/svg">
<path d="M6.00928 20C5.45928 20 4.98844 19.8042 4.59678 19.4125C4.20511 19.0208 4.00928 18.55 4.00928 18C4.00928 17.45 4.20511 16.9792 4.59678 16.5875C4.98844 16.1958 5.45928 16 6.00928 16C6.55928 16 7.03011 16.1958 7.42178 16.5875C7.81344 16.9792 8.00928 17.45 8.00928 18C8.00928 18.55 7.81344 19.0208 7.42178 19.4125C7.03011 19.8042 6.55928 20 6.00928 20ZM16.0093 20C15.4593 20 14.9884 19.8042 14.5968 19.4125C14.2051 19.0208 14.0093 18.55 14.0093 18C14.0093 17.45 14.2051 16.9792 14.5968 16.5875C14.9884 16.1958 15.4593 16 16.0093 16C16.5593 16 17.0301 16.1958 17.4218 16.5875C17.8134 16.9792 18.0093 17.45 18.0093 18C18.0093 18.55 17.8134 19.0208 17.4218 19.4125C17.0301 19.8042 16.5593 20 16.0093 20ZM5.15928 4L7.55928 9H14.5593L17.3093 4H5.15928ZM4.20928 2H18.9593C19.3426 2 19.6343 2.17083 19.8343 2.5125C20.0343 2.85417 20.0426 3.2 19.8593 3.55L16.3093 9.95C16.1259 10.2833 15.8801 10.5417 15.5718 10.725C15.2634 10.9083 14.9259 11 14.5593 11H7.10928L6.00928 13H18.0093V15H6.00928C5.25928 15 4.69261 14.6708 4.30928 14.0125C3.92594 13.3542 3.90928 12.7 4.25928 12.05L5.60928 9.6L2.00928 2H0.00927734V0H3.25928L4.20928 2Z" fill="#5F6368"/>
</svg>
